<mxfile host="app.diagrams.net" agent="Mozilla/5.0 (Windows NT 10.0; Win64; x64) AppleWebKit/537.36 (KHTML, like Gecko) Chrome/127.0.0.0 Safari/537.36 OPR/113.0.0.0" version="24.7.16">
  <diagram name="Página-1" id="I79DG9nxFcM3Ktv46hhQ">
    <mxGraphModel dx="1682" dy="898" grid="1" gridSize="10" guides="1" tooltips="1" connect="1" arrows="1" fold="1" page="1" pageScale="1" pageWidth="827" pageHeight="1169" math="0" shadow="0">
      <root>
        <mxCell id="0" />
        <mxCell id="1" parent="0" />
        <mxCell id="JGYPUnwXIvGKZdL3sUW1-18" value="" style="edgeStyle=orthogonalEdgeStyle;rounded=0;orthogonalLoop=1;jettySize=auto;html=1;" edge="1" parent="1" source="JGYPUnwXIvGKZdL3sUW1-8" target="JGYPUnwXIvGKZdL3sUW1-17">
          <mxGeometry relative="1" as="geometry" />
        </mxCell>
        <mxCell id="JGYPUnwXIvGKZdL3sUW1-8" value="Obtendo dados da ação" style="swimlane;whiteSpace=wrap;html=1;" vertex="1" parent="1">
          <mxGeometry x="285" y="225" width="155" height="70" as="geometry" />
        </mxCell>
        <mxCell id="JGYPUnwXIvGKZdL3sUW1-9" value="obterDadosAcao()" style="text;html=1;align=center;verticalAlign=middle;resizable=0;points=[];autosize=1;strokeColor=none;fillColor=none;" vertex="1" parent="JGYPUnwXIvGKZdL3sUW1-8">
          <mxGeometry y="20" width="120" height="30" as="geometry" />
        </mxCell>
        <mxCell id="JGYPUnwXIvGKZdL3sUW1-21" value="" style="edgeStyle=orthogonalEdgeStyle;rounded=0;orthogonalLoop=1;jettySize=auto;html=1;" edge="1" parent="1" source="JGYPUnwXIvGKZdL3sUW1-16" target="JGYPUnwXIvGKZdL3sUW1-20">
          <mxGeometry relative="1" as="geometry" />
        </mxCell>
        <mxCell id="JGYPUnwXIvGKZdL3sUW1-16" value="Solicita dados da ação" style="swimlane;whiteSpace=wrap;html=1;" vertex="1" parent="1">
          <mxGeometry x="525" y="225" width="155" height="70" as="geometry" />
        </mxCell>
        <mxCell id="JGYPUnwXIvGKZdL3sUW1-17" value="Requisita a API da B3&amp;nbsp;" style="text;html=1;align=center;verticalAlign=middle;resizable=0;points=[];autosize=1;strokeColor=none;fillColor=none;" vertex="1" parent="JGYPUnwXIvGKZdL3sUW1-16">
          <mxGeometry y="20" width="140" height="30" as="geometry" />
        </mxCell>
        <mxCell id="JGYPUnwXIvGKZdL3sUW1-29" value="" style="edgeStyle=orthogonalEdgeStyle;rounded=0;orthogonalLoop=1;jettySize=auto;html=1;entryX=0;entryY=0.5;entryDx=0;entryDy=0;" edge="1" parent="1" source="JGYPUnwXIvGKZdL3sUW1-19" target="JGYPUnwXIvGKZdL3sUW1-27">
          <mxGeometry relative="1" as="geometry">
            <mxPoint x="995" y="260" as="targetPoint" />
          </mxGeometry>
        </mxCell>
        <mxCell id="JGYPUnwXIvGKZdL3sUW1-19" value="Recebe dados" style="swimlane;whiteSpace=wrap;html=1;" vertex="1" parent="1">
          <mxGeometry x="765" y="225" width="155" height="70" as="geometry" />
        </mxCell>
        <mxCell id="JGYPUnwXIvGKZdL3sUW1-20" value="API B3 retorna dados" style="text;html=1;align=center;verticalAlign=middle;resizable=0;points=[];autosize=1;strokeColor=none;fillColor=none;" vertex="1" parent="JGYPUnwXIvGKZdL3sUW1-19">
          <mxGeometry y="20" width="140" height="30" as="geometry" />
        </mxCell>
        <mxCell id="JGYPUnwXIvGKZdL3sUW1-22" value="" style="ellipse;whiteSpace=wrap;html=1;aspect=fixed;" vertex="1" parent="1">
          <mxGeometry x="1245" y="240" width="40" height="40" as="geometry" />
        </mxCell>
        <mxCell id="JGYPUnwXIvGKZdL3sUW1-23" value="Retorna dados da ação" style="text;html=1;align=center;verticalAlign=middle;whiteSpace=wrap;rounded=0;" vertex="1" parent="1">
          <mxGeometry x="1215" y="280" width="100" height="40" as="geometry" />
        </mxCell>
        <mxCell id="JGYPUnwXIvGKZdL3sUW1-26" value="" style="ellipse;whiteSpace=wrap;html=1;aspect=fixed;" vertex="1" parent="1">
          <mxGeometry x="1250" y="245" width="30" height="30" as="geometry" />
        </mxCell>
        <mxCell id="JGYPUnwXIvGKZdL3sUW1-31" value="" style="edgeStyle=orthogonalEdgeStyle;rounded=0;orthogonalLoop=1;jettySize=auto;html=1;" edge="1" parent="1" source="JGYPUnwXIvGKZdL3sUW1-27">
          <mxGeometry relative="1" as="geometry">
            <mxPoint x="1245" y="260" as="targetPoint" />
          </mxGeometry>
        </mxCell>
        <mxCell id="JGYPUnwXIvGKZdL3sUW1-27" value="Retorna dados" style="swimlane;whiteSpace=wrap;html=1;" vertex="1" parent="1">
          <mxGeometry x="1005" y="225" width="167.5" height="70" as="geometry" />
        </mxCell>
        <mxCell id="JGYPUnwXIvGKZdL3sUW1-28" value="Retorna dados da ação" style="text;html=1;align=center;verticalAlign=middle;resizable=0;points=[];autosize=1;strokeColor=none;fillColor=none;" vertex="1" parent="JGYPUnwXIvGKZdL3sUW1-27">
          <mxGeometry x="7.5" y="20" width="150" height="30" as="geometry" />
        </mxCell>
        <mxCell id="JGYPUnwXIvGKZdL3sUW1-148" value="" style="edgeStyle=orthogonalEdgeStyle;rounded=0;orthogonalLoop=1;jettySize=auto;html=1;entryX=0;entryY=0.5;entryDx=0;entryDy=0;" edge="1" parent="1" source="JGYPUnwXIvGKZdL3sUW1-36" target="JGYPUnwXIvGKZdL3sUW1-145">
          <mxGeometry relative="1" as="geometry" />
        </mxCell>
        <mxCell id="JGYPUnwXIvGKZdL3sUW1-36" value="Recebe solicitação de ordem de compra" style="swimlane;whiteSpace=wrap;html=1;startSize=30;" vertex="1" parent="1">
          <mxGeometry x="280" y="390" width="160" height="80" as="geometry" />
        </mxCell>
        <mxCell id="JGYPUnwXIvGKZdL3sUW1-50" value="&lt;div style=&quot;text-align: justify;&quot;&gt;&lt;span style=&quot;text-wrap: nowrap;&quot;&gt;enviaOrdem()&lt;/span&gt;&lt;/div&gt;" style="text;html=1;align=center;verticalAlign=middle;whiteSpace=wrap;rounded=0;" vertex="1" parent="JGYPUnwXIvGKZdL3sUW1-36">
          <mxGeometry x="-10" y="25" width="160" height="50" as="geometry" />
        </mxCell>
        <mxCell id="JGYPUnwXIvGKZdL3sUW1-39" value="Recebe confirmação da API B3" style="swimlane;whiteSpace=wrap;html=1;startSize=30;" vertex="1" parent="1">
          <mxGeometry x="765" y="390" width="180" height="80" as="geometry" />
        </mxCell>
        <mxCell id="JGYPUnwXIvGKZdL3sUW1-52" value="API retorna estado da compra" style="text;html=1;align=center;verticalAlign=middle;resizable=0;points=[];autosize=1;strokeColor=none;fillColor=none;" vertex="1" parent="JGYPUnwXIvGKZdL3sUW1-39">
          <mxGeometry y="30" width="180" height="30" as="geometry" />
        </mxCell>
        <mxCell id="JGYPUnwXIvGKZdL3sUW1-44" value="" style="ellipse;whiteSpace=wrap;html=1;aspect=fixed;" vertex="1" parent="1">
          <mxGeometry x="1315" y="410" width="40" height="40" as="geometry" />
        </mxCell>
        <mxCell id="JGYPUnwXIvGKZdL3sUW1-45" value="Retorna estado da compra" style="text;html=1;align=center;verticalAlign=middle;whiteSpace=wrap;rounded=0;" vertex="1" parent="1">
          <mxGeometry x="1285" y="450" width="100" height="40" as="geometry" />
        </mxCell>
        <mxCell id="JGYPUnwXIvGKZdL3sUW1-46" value="" style="ellipse;whiteSpace=wrap;html=1;aspect=fixed;" vertex="1" parent="1">
          <mxGeometry x="1320" y="415" width="30" height="30" as="geometry" />
        </mxCell>
        <mxCell id="JGYPUnwXIvGKZdL3sUW1-161" value="" style="edgeStyle=orthogonalEdgeStyle;rounded=0;orthogonalLoop=1;jettySize=auto;html=1;entryX=-0.01;entryY=0.282;entryDx=0;entryDy=0;entryPerimeter=0;" edge="1" parent="1" source="JGYPUnwXIvGKZdL3sUW1-70">
          <mxGeometry relative="1" as="geometry">
            <mxPoint x="528.3999999999999" y="619.1000000000001" as="targetPoint" />
            <Array as="points">
              <mxPoint x="490" y="620" />
            </Array>
          </mxGeometry>
        </mxCell>
        <mxCell id="JGYPUnwXIvGKZdL3sUW1-70" value="Recebe solicitação de modificação de ordem" style="swimlane;whiteSpace=wrap;html=1;startSize=30;" vertex="1" parent="1">
          <mxGeometry x="280" y="580" width="170" height="80" as="geometry" />
        </mxCell>
        <mxCell id="JGYPUnwXIvGKZdL3sUW1-71" value="&lt;span style=&quot;text-wrap: nowrap;&quot;&gt;modificarOrdem(ordem)&lt;/span&gt;" style="text;html=1;align=center;verticalAlign=middle;whiteSpace=wrap;rounded=0;" vertex="1" parent="JGYPUnwXIvGKZdL3sUW1-70">
          <mxGeometry y="25" width="160" height="50" as="geometry" />
        </mxCell>
        <mxCell id="JGYPUnwXIvGKZdL3sUW1-72" value="" style="edgeStyle=orthogonalEdgeStyle;rounded=0;orthogonalLoop=1;jettySize=auto;html=1;entryX=0;entryY=0.5;entryDx=0;entryDy=0;" edge="1" parent="1" source="JGYPUnwXIvGKZdL3sUW1-73" target="JGYPUnwXIvGKZdL3sUW1-75">
          <mxGeometry relative="1" as="geometry" />
        </mxCell>
        <mxCell id="JGYPUnwXIvGKZdL3sUW1-73" value="Retorna confirmação" style="swimlane;whiteSpace=wrap;html=1;startSize=30;" vertex="1" parent="1">
          <mxGeometry x="1015" y="580" width="180" height="80" as="geometry" />
        </mxCell>
        <mxCell id="JGYPUnwXIvGKZdL3sUW1-74" value="Retorna confirmação da&amp;nbsp;&lt;div style=&quot;text-align: justify;&quot;&gt;modificação&lt;/div&gt;" style="text;html=1;align=center;verticalAlign=middle;resizable=0;points=[];autosize=1;strokeColor=none;fillColor=none;" vertex="1" parent="JGYPUnwXIvGKZdL3sUW1-73">
          <mxGeometry y="30" width="150" height="40" as="geometry" />
        </mxCell>
        <mxCell id="JGYPUnwXIvGKZdL3sUW1-75" value="" style="ellipse;whiteSpace=wrap;html=1;aspect=fixed;" vertex="1" parent="1">
          <mxGeometry x="1280" y="600" width="40" height="40" as="geometry" />
        </mxCell>
        <mxCell id="JGYPUnwXIvGKZdL3sUW1-76" value="Retorna confirmação de modificação" style="text;html=1;align=center;verticalAlign=middle;whiteSpace=wrap;rounded=0;" vertex="1" parent="1">
          <mxGeometry x="1250" y="640" width="100" height="40" as="geometry" />
        </mxCell>
        <mxCell id="JGYPUnwXIvGKZdL3sUW1-77" value="" style="ellipse;whiteSpace=wrap;html=1;aspect=fixed;" vertex="1" parent="1">
          <mxGeometry x="1285" y="605" width="30" height="30" as="geometry" />
        </mxCell>
        <mxCell id="JGYPUnwXIvGKZdL3sUW1-202" style="edgeStyle=orthogonalEdgeStyle;rounded=0;orthogonalLoop=1;jettySize=auto;html=1;" edge="1" parent="1" source="JGYPUnwXIvGKZdL3sUW1-79">
          <mxGeometry relative="1" as="geometry">
            <mxPoint x="280" y="805" as="targetPoint" />
          </mxGeometry>
        </mxCell>
        <mxCell id="JGYPUnwXIvGKZdL3sUW1-204" style="edgeStyle=orthogonalEdgeStyle;rounded=0;orthogonalLoop=1;jettySize=auto;html=1;" edge="1" parent="1" source="JGYPUnwXIvGKZdL3sUW1-79" target="JGYPUnwXIvGKZdL3sUW1-71">
          <mxGeometry relative="1" as="geometry">
            <mxPoint x="270" y="610" as="targetPoint" />
            <Array as="points">
              <mxPoint x="55" y="620" />
            </Array>
          </mxGeometry>
        </mxCell>
        <mxCell id="JGYPUnwXIvGKZdL3sUW1-205" style="edgeStyle=orthogonalEdgeStyle;rounded=0;orthogonalLoop=1;jettySize=auto;html=1;entryX=0.063;entryY=0.3;entryDx=0;entryDy=0;entryPerimeter=0;" edge="1" parent="1" source="JGYPUnwXIvGKZdL3sUW1-79" target="JGYPUnwXIvGKZdL3sUW1-50">
          <mxGeometry relative="1" as="geometry">
            <mxPoint x="55" y="430" as="targetPoint" />
            <Array as="points">
              <mxPoint x="55" y="608" />
              <mxPoint x="56" y="608" />
              <mxPoint x="56" y="430" />
            </Array>
          </mxGeometry>
        </mxCell>
        <mxCell id="JGYPUnwXIvGKZdL3sUW1-207" style="edgeStyle=orthogonalEdgeStyle;rounded=0;orthogonalLoop=1;jettySize=auto;html=1;" edge="1" parent="1" source="JGYPUnwXIvGKZdL3sUW1-79">
          <mxGeometry relative="1" as="geometry">
            <mxPoint x="280" y="1000" as="targetPoint" />
            <Array as="points">
              <mxPoint x="55" y="1000" />
            </Array>
          </mxGeometry>
        </mxCell>
        <mxCell id="JGYPUnwXIvGKZdL3sUW1-208" style="edgeStyle=orthogonalEdgeStyle;rounded=0;orthogonalLoop=1;jettySize=auto;html=1;" edge="1" parent="1" source="JGYPUnwXIvGKZdL3sUW1-79">
          <mxGeometry relative="1" as="geometry">
            <mxPoint x="280" y="1180" as="targetPoint" />
            <Array as="points">
              <mxPoint x="55" y="1180" />
            </Array>
          </mxGeometry>
        </mxCell>
        <mxCell id="JGYPUnwXIvGKZdL3sUW1-209" style="edgeStyle=orthogonalEdgeStyle;rounded=0;orthogonalLoop=1;jettySize=auto;html=1;entryX=0.125;entryY=0.5;entryDx=0;entryDy=0;entryPerimeter=0;" edge="1" parent="1" source="JGYPUnwXIvGKZdL3sUW1-79" target="JGYPUnwXIvGKZdL3sUW1-137">
          <mxGeometry relative="1" as="geometry">
            <mxPoint x="55" y="1384" as="targetPoint" />
            <Array as="points">
              <mxPoint x="55" y="1105" />
              <mxPoint x="56" y="1105" />
              <mxPoint x="56" y="1380" />
            </Array>
          </mxGeometry>
        </mxCell>
        <mxCell id="JGYPUnwXIvGKZdL3sUW1-79" value="" style="ellipse;whiteSpace=wrap;html=1;aspect=fixed;" vertex="1" parent="1">
          <mxGeometry x="35" y="785" width="40" height="40" as="geometry" />
        </mxCell>
        <mxCell id="JGYPUnwXIvGKZdL3sUW1-206" style="edgeStyle=orthogonalEdgeStyle;rounded=0;orthogonalLoop=1;jettySize=auto;html=1;entryX=0.004;entryY=0.495;entryDx=0;entryDy=0;entryPerimeter=0;" edge="1" parent="1" target="JGYPUnwXIvGKZdL3sUW1-9">
          <mxGeometry relative="1" as="geometry">
            <mxPoint x="55" y="260" as="targetPoint" />
            <mxPoint x="55" y="780" as="sourcePoint" />
            <Array as="points">
              <mxPoint x="55" y="534" />
              <mxPoint x="56" y="534" />
              <mxPoint x="56" y="260" />
              <mxPoint x="280" y="260" />
            </Array>
          </mxGeometry>
        </mxCell>
        <mxCell id="JGYPUnwXIvGKZdL3sUW1-80" value="Esperando Solicitação" style="text;html=1;align=center;verticalAlign=middle;whiteSpace=wrap;rounded=0;" vertex="1" parent="1">
          <mxGeometry x="60" y="795" width="100" height="65" as="geometry" />
        </mxCell>
        <mxCell id="JGYPUnwXIvGKZdL3sUW1-171" value="" style="edgeStyle=orthogonalEdgeStyle;rounded=0;orthogonalLoop=1;jettySize=auto;html=1;entryX=0;entryY=0.5;entryDx=0;entryDy=0;" edge="1" parent="1" source="JGYPUnwXIvGKZdL3sUW1-82" target="JGYPUnwXIvGKZdL3sUW1-169">
          <mxGeometry relative="1" as="geometry" />
        </mxCell>
        <mxCell id="JGYPUnwXIvGKZdL3sUW1-82" value="Recebe solicitação de consulta" style="swimlane;whiteSpace=wrap;html=1;startSize=30;" vertex="1" parent="1">
          <mxGeometry x="280" y="760" width="170" height="80" as="geometry" />
        </mxCell>
        <mxCell id="JGYPUnwXIvGKZdL3sUW1-83" value="&lt;div style=&quot;text-align: justify;&quot;&gt;&lt;span style=&quot;text-align: center;&quot;&gt;consultarStatusOrdem(ordem)&lt;/span&gt;&lt;br&gt;&lt;/div&gt;" style="text;html=1;align=center;verticalAlign=middle;whiteSpace=wrap;rounded=0;" vertex="1" parent="JGYPUnwXIvGKZdL3sUW1-82">
          <mxGeometry x="5" y="25" width="160" height="50" as="geometry" />
        </mxCell>
        <mxCell id="JGYPUnwXIvGKZdL3sUW1-84" value="" style="edgeStyle=orthogonalEdgeStyle;rounded=0;orthogonalLoop=1;jettySize=auto;html=1;entryX=0;entryY=0.5;entryDx=0;entryDy=0;" edge="1" parent="1" source="JGYPUnwXIvGKZdL3sUW1-85" target="JGYPUnwXIvGKZdL3sUW1-87">
          <mxGeometry relative="1" as="geometry" />
        </mxCell>
        <mxCell id="JGYPUnwXIvGKZdL3sUW1-85" value="Retorna status&amp;nbsp;&amp;nbsp;" style="swimlane;whiteSpace=wrap;html=1;startSize=20;" vertex="1" parent="1">
          <mxGeometry x="1015" y="760" width="180" height="80" as="geometry" />
        </mxCell>
        <mxCell id="JGYPUnwXIvGKZdL3sUW1-86" value="&lt;div style=&quot;text-align: justify;&quot;&gt;&lt;span style=&quot;background-color: initial;&quot;&gt;API retorna status da ordem&amp;nbsp;&lt;/span&gt;&lt;/div&gt;&lt;div style=&quot;text-align: justify;&quot;&gt;de compra&lt;/div&gt;" style="text;html=1;align=center;verticalAlign=middle;resizable=0;points=[];autosize=1;strokeColor=none;fillColor=none;" vertex="1" parent="JGYPUnwXIvGKZdL3sUW1-85">
          <mxGeometry y="20" width="180" height="40" as="geometry" />
        </mxCell>
        <mxCell id="JGYPUnwXIvGKZdL3sUW1-87" value="" style="ellipse;whiteSpace=wrap;html=1;aspect=fixed;" vertex="1" parent="1">
          <mxGeometry x="1275" y="780" width="40" height="40" as="geometry" />
        </mxCell>
        <mxCell id="JGYPUnwXIvGKZdL3sUW1-88" value="Retorna status da ordem de compra" style="text;html=1;align=center;verticalAlign=middle;whiteSpace=wrap;rounded=0;" vertex="1" parent="1">
          <mxGeometry x="1245" y="820" width="100" height="40" as="geometry" />
        </mxCell>
        <mxCell id="JGYPUnwXIvGKZdL3sUW1-89" value="" style="ellipse;whiteSpace=wrap;html=1;aspect=fixed;" vertex="1" parent="1">
          <mxGeometry x="1280" y="785" width="30" height="30" as="geometry" />
        </mxCell>
        <mxCell id="JGYPUnwXIvGKZdL3sUW1-178" value="" style="edgeStyle=orthogonalEdgeStyle;rounded=0;orthogonalLoop=1;jettySize=auto;html=1;" edge="1" parent="1" source="JGYPUnwXIvGKZdL3sUW1-106">
          <mxGeometry relative="1" as="geometry">
            <mxPoint x="525" y="985" as="targetPoint" />
          </mxGeometry>
        </mxCell>
        <mxCell id="JGYPUnwXIvGKZdL3sUW1-106" value="Recebe solicitação de cancelamento de ordem" style="swimlane;whiteSpace=wrap;html=1;startSize=30;" vertex="1" parent="1">
          <mxGeometry x="280" y="940" width="170" height="90" as="geometry" />
        </mxCell>
        <mxCell id="JGYPUnwXIvGKZdL3sUW1-107" value="&lt;div style=&quot;text-align: justify;&quot;&gt;&lt;span style=&quot;text-align: center;&quot;&gt;cancelaOrdem(ordem)&lt;/span&gt;&lt;br&gt;&lt;/div&gt;" style="text;html=1;align=center;verticalAlign=middle;whiteSpace=wrap;rounded=0;" vertex="1" parent="JGYPUnwXIvGKZdL3sUW1-106">
          <mxGeometry x="5" y="35" width="160" height="50" as="geometry" />
        </mxCell>
        <mxCell id="JGYPUnwXIvGKZdL3sUW1-111" value="" style="ellipse;whiteSpace=wrap;html=1;aspect=fixed;" vertex="1" parent="1">
          <mxGeometry x="1285" y="965" width="40" height="40" as="geometry" />
        </mxCell>
        <mxCell id="JGYPUnwXIvGKZdL3sUW1-112" value="Retorna estado do cancelamento de ordem" style="text;html=1;align=center;verticalAlign=middle;whiteSpace=wrap;rounded=0;" vertex="1" parent="1">
          <mxGeometry x="1255" y="1005" width="100" height="40" as="geometry" />
        </mxCell>
        <mxCell id="JGYPUnwXIvGKZdL3sUW1-113" value="" style="ellipse;whiteSpace=wrap;html=1;aspect=fixed;" vertex="1" parent="1">
          <mxGeometry x="1290" y="970" width="30" height="30" as="geometry" />
        </mxCell>
        <mxCell id="JGYPUnwXIvGKZdL3sUW1-198" value="" style="edgeStyle=orthogonalEdgeStyle;rounded=0;orthogonalLoop=1;jettySize=auto;html=1;" edge="1" parent="1" source="JGYPUnwXIvGKZdL3sUW1-124">
          <mxGeometry relative="1" as="geometry">
            <mxPoint x="525" y="1170" as="targetPoint" />
          </mxGeometry>
        </mxCell>
        <mxCell id="JGYPUnwXIvGKZdL3sUW1-124" value="Recebe solicitação de verificar status da ordem" style="swimlane;whiteSpace=wrap;html=1;startSize=30;" vertex="1" parent="1">
          <mxGeometry x="280" y="1130" width="170" height="80" as="geometry" />
        </mxCell>
        <mxCell id="JGYPUnwXIvGKZdL3sUW1-125" value="&lt;div style=&quot;text-align: justify;&quot;&gt;&lt;span style=&quot;text-align: center;&quot;&gt;consultarStatusOrdem(ordem)&lt;/span&gt;&lt;br&gt;&lt;/div&gt;" style="text;html=1;align=center;verticalAlign=middle;whiteSpace=wrap;rounded=0;" vertex="1" parent="JGYPUnwXIvGKZdL3sUW1-124">
          <mxGeometry x="5" y="25" width="160" height="50" as="geometry" />
        </mxCell>
        <mxCell id="JGYPUnwXIvGKZdL3sUW1-126" value="" style="edgeStyle=orthogonalEdgeStyle;rounded=0;orthogonalLoop=1;jettySize=auto;html=1;entryX=0;entryY=0.5;entryDx=0;entryDy=0;" edge="1" parent="1" source="JGYPUnwXIvGKZdL3sUW1-127" target="JGYPUnwXIvGKZdL3sUW1-129">
          <mxGeometry relative="1" as="geometry" />
        </mxCell>
        <mxCell id="JGYPUnwXIvGKZdL3sUW1-127" value="Retorna Status&amp;nbsp;" style="swimlane;whiteSpace=wrap;html=1;startSize=20;" vertex="1" parent="1">
          <mxGeometry x="1025" y="1130" width="180" height="80" as="geometry" />
        </mxCell>
        <mxCell id="JGYPUnwXIvGKZdL3sUW1-128" value="&lt;div style=&quot;text-align: justify;&quot;&gt;&lt;span style=&quot;background-color: initial;&quot;&gt;API retorna status da ordem&amp;nbsp;&lt;/span&gt;&lt;/div&gt;&lt;div style=&quot;text-align: justify;&quot;&gt;de venda&lt;/div&gt;" style="text;html=1;align=center;verticalAlign=middle;resizable=0;points=[];autosize=1;strokeColor=none;fillColor=none;" vertex="1" parent="JGYPUnwXIvGKZdL3sUW1-127">
          <mxGeometry y="20" width="180" height="40" as="geometry" />
        </mxCell>
        <mxCell id="JGYPUnwXIvGKZdL3sUW1-129" value="" style="ellipse;whiteSpace=wrap;html=1;aspect=fixed;" vertex="1" parent="1">
          <mxGeometry x="1285" y="1150" width="40" height="40" as="geometry" />
        </mxCell>
        <mxCell id="JGYPUnwXIvGKZdL3sUW1-130" value="Retorna status da ordem de venda" style="text;html=1;align=center;verticalAlign=middle;whiteSpace=wrap;rounded=0;" vertex="1" parent="1">
          <mxGeometry x="1255" y="1190" width="100" height="40" as="geometry" />
        </mxCell>
        <mxCell id="JGYPUnwXIvGKZdL3sUW1-131" value="" style="ellipse;whiteSpace=wrap;html=1;aspect=fixed;" vertex="1" parent="1">
          <mxGeometry x="1290" y="1155" width="30" height="30" as="geometry" />
        </mxCell>
        <mxCell id="JGYPUnwXIvGKZdL3sUW1-189" value="" style="edgeStyle=orthogonalEdgeStyle;rounded=0;orthogonalLoop=1;jettySize=auto;html=1;" edge="1" parent="1" source="JGYPUnwXIvGKZdL3sUW1-136">
          <mxGeometry relative="1" as="geometry">
            <mxPoint x="545" y="1375" as="targetPoint" />
          </mxGeometry>
        </mxCell>
        <mxCell id="JGYPUnwXIvGKZdL3sUW1-136" value="Recebe solicitação de sincronizar carteira" style="swimlane;whiteSpace=wrap;html=1;startSize=30;" vertex="1" parent="1">
          <mxGeometry x="280" y="1335" width="170" height="80" as="geometry" />
        </mxCell>
        <mxCell id="JGYPUnwXIvGKZdL3sUW1-137" value="&lt;div style=&quot;text-align: left;&quot;&gt;&lt;span style=&quot;&quot;&gt;sincronizaCarteira()&lt;/span&gt;&lt;br&gt;&lt;/div&gt;" style="text;html=1;align=center;verticalAlign=middle;whiteSpace=wrap;rounded=0;" vertex="1" parent="JGYPUnwXIvGKZdL3sUW1-136">
          <mxGeometry x="-20" y="20" width="160" height="50" as="geometry" />
        </mxCell>
        <mxCell id="JGYPUnwXIvGKZdL3sUW1-138" value="" style="edgeStyle=orthogonalEdgeStyle;rounded=0;orthogonalLoop=1;jettySize=auto;html=1;entryX=0;entryY=0.5;entryDx=0;entryDy=0;" edge="1" parent="1" source="JGYPUnwXIvGKZdL3sUW1-139" target="JGYPUnwXIvGKZdL3sUW1-141">
          <mxGeometry relative="1" as="geometry" />
        </mxCell>
        <mxCell id="JGYPUnwXIvGKZdL3sUW1-139" value="Retorna status da carteira" style="swimlane;whiteSpace=wrap;html=1;startSize=20;" vertex="1" parent="1">
          <mxGeometry x="1065" y="1332.5" width="180" height="80" as="geometry" />
        </mxCell>
        <mxCell id="JGYPUnwXIvGKZdL3sUW1-140" value="&lt;div style=&quot;text-align: justify;&quot;&gt;&lt;span style=&quot;background-color: initial;&quot;&gt;Retorna status da carteira&lt;/span&gt;&lt;/div&gt;&lt;div style=&quot;text-align: justify;&quot;&gt;&lt;span style=&quot;background-color: initial;&quot;&gt;sincronizada&lt;/span&gt;&lt;/div&gt;" style="text;html=1;align=center;verticalAlign=middle;resizable=0;points=[];autosize=1;strokeColor=none;fillColor=none;" vertex="1" parent="JGYPUnwXIvGKZdL3sUW1-139">
          <mxGeometry x="10" y="20" width="160" height="40" as="geometry" />
        </mxCell>
        <mxCell id="JGYPUnwXIvGKZdL3sUW1-141" value="" style="ellipse;whiteSpace=wrap;html=1;aspect=fixed;" vertex="1" parent="1">
          <mxGeometry x="1325" y="1352.5" width="40" height="40" as="geometry" />
        </mxCell>
        <mxCell id="JGYPUnwXIvGKZdL3sUW1-142" value="Retorna status da carteira sincronizada" style="text;html=1;align=center;verticalAlign=middle;whiteSpace=wrap;rounded=0;" vertex="1" parent="1">
          <mxGeometry x="1295" y="1392.5" width="100" height="50" as="geometry" />
        </mxCell>
        <mxCell id="JGYPUnwXIvGKZdL3sUW1-143" value="" style="ellipse;whiteSpace=wrap;html=1;aspect=fixed;" vertex="1" parent="1">
          <mxGeometry x="1330" y="1357.5" width="30" height="30" as="geometry" />
        </mxCell>
        <mxCell id="JGYPUnwXIvGKZdL3sUW1-150" value="" style="edgeStyle=orthogonalEdgeStyle;rounded=0;orthogonalLoop=1;jettySize=auto;html=1;" edge="1" parent="1" target="JGYPUnwXIvGKZdL3sUW1-52">
          <mxGeometry relative="1" as="geometry">
            <mxPoint x="695" y="435" as="sourcePoint" />
          </mxGeometry>
        </mxCell>
        <mxCell id="JGYPUnwXIvGKZdL3sUW1-145" value="Envia ordem de compra" style="swimlane;whiteSpace=wrap;html=1;startSize=30;" vertex="1" parent="1">
          <mxGeometry x="525" y="390" width="170" height="80" as="geometry" />
        </mxCell>
        <mxCell id="JGYPUnwXIvGKZdL3sUW1-146" value="&lt;div style=&quot;text-align: justify;&quot;&gt;&lt;span style=&quot;text-align: center;&quot;&gt;Envia ordem de compra para API B3&lt;/span&gt;&lt;br&gt;&lt;/div&gt;" style="text;html=1;align=center;verticalAlign=middle;whiteSpace=wrap;rounded=0;" vertex="1" parent="JGYPUnwXIvGKZdL3sUW1-145">
          <mxGeometry x="5" y="25" width="160" height="50" as="geometry" />
        </mxCell>
        <mxCell id="JGYPUnwXIvGKZdL3sUW1-154" value="" style="edgeStyle=orthogonalEdgeStyle;rounded=0;orthogonalLoop=1;jettySize=auto;html=1;entryX=0;entryY=0.5;entryDx=0;entryDy=0;" edge="1" parent="1" source="JGYPUnwXIvGKZdL3sUW1-151" target="JGYPUnwXIvGKZdL3sUW1-44">
          <mxGeometry relative="1" as="geometry" />
        </mxCell>
        <mxCell id="JGYPUnwXIvGKZdL3sUW1-151" value="Retorna status" style="swimlane;whiteSpace=wrap;html=1;startSize=30;" vertex="1" parent="1">
          <mxGeometry x="1015" y="390" width="180" height="80" as="geometry" />
        </mxCell>
        <mxCell id="JGYPUnwXIvGKZdL3sUW1-152" value="API retorna estado da compra" style="text;html=1;align=center;verticalAlign=middle;resizable=0;points=[];autosize=1;strokeColor=none;fillColor=none;" vertex="1" parent="JGYPUnwXIvGKZdL3sUW1-151">
          <mxGeometry y="30" width="180" height="30" as="geometry" />
        </mxCell>
        <mxCell id="JGYPUnwXIvGKZdL3sUW1-153" value="" style="edgeStyle=orthogonalEdgeStyle;rounded=0;orthogonalLoop=1;jettySize=auto;html=1;" edge="1" parent="1" source="JGYPUnwXIvGKZdL3sUW1-52" target="JGYPUnwXIvGKZdL3sUW1-152">
          <mxGeometry relative="1" as="geometry" />
        </mxCell>
        <mxCell id="JGYPUnwXIvGKZdL3sUW1-168" value="" style="edgeStyle=orthogonalEdgeStyle;rounded=0;orthogonalLoop=1;jettySize=auto;html=1;entryX=-0.013;entryY=0.252;entryDx=0;entryDy=0;entryPerimeter=0;" edge="1" parent="1" source="JGYPUnwXIvGKZdL3sUW1-158" target="JGYPUnwXIvGKZdL3sUW1-166">
          <mxGeometry relative="1" as="geometry" />
        </mxCell>
        <mxCell id="JGYPUnwXIvGKZdL3sUW1-158" value="Envia modificação de ordem" style="swimlane;whiteSpace=wrap;html=1;startSize=30;" vertex="1" parent="1">
          <mxGeometry x="530" y="580" width="170" height="80" as="geometry" />
        </mxCell>
        <mxCell id="JGYPUnwXIvGKZdL3sUW1-164" value="&lt;div style=&quot;text-align: justify;&quot;&gt;&lt;span style=&quot;background-color: initial;&quot;&gt;Envia modificação de ordem&lt;/span&gt;&lt;/div&gt;&lt;div style=&quot;text-align: justify;&quot;&gt;para API B3&lt;/div&gt;" style="text;html=1;align=center;verticalAlign=middle;resizable=0;points=[];autosize=1;strokeColor=none;fillColor=none;" vertex="1" parent="JGYPUnwXIvGKZdL3sUW1-158">
          <mxGeometry x="-5" y="30" width="170" height="40" as="geometry" />
        </mxCell>
        <mxCell id="JGYPUnwXIvGKZdL3sUW1-167" value="" style="edgeStyle=orthogonalEdgeStyle;rounded=0;orthogonalLoop=1;jettySize=auto;html=1;entryX=0.006;entryY=0.25;entryDx=0;entryDy=0;entryPerimeter=0;" edge="1" parent="1" source="JGYPUnwXIvGKZdL3sUW1-165" target="JGYPUnwXIvGKZdL3sUW1-74">
          <mxGeometry relative="1" as="geometry" />
        </mxCell>
        <mxCell id="JGYPUnwXIvGKZdL3sUW1-165" value="Recebe confirmação da API B3" style="swimlane;whiteSpace=wrap;html=1;startSize=30;" vertex="1" parent="1">
          <mxGeometry x="765" y="580" width="180" height="80" as="geometry" />
        </mxCell>
        <mxCell id="JGYPUnwXIvGKZdL3sUW1-166" value="API retorna confirmação da&amp;nbsp;&lt;div style=&quot;text-align: justify;&quot;&gt;modificação&lt;/div&gt;" style="text;html=1;align=center;verticalAlign=middle;resizable=0;points=[];autosize=1;strokeColor=none;fillColor=none;" vertex="1" parent="JGYPUnwXIvGKZdL3sUW1-165">
          <mxGeometry y="30" width="170" height="40" as="geometry" />
        </mxCell>
        <mxCell id="JGYPUnwXIvGKZdL3sUW1-174" value="" style="edgeStyle=orthogonalEdgeStyle;rounded=0;orthogonalLoop=1;jettySize=auto;html=1;" edge="1" parent="1" source="JGYPUnwXIvGKZdL3sUW1-169" target="JGYPUnwXIvGKZdL3sUW1-173">
          <mxGeometry relative="1" as="geometry" />
        </mxCell>
        <mxCell id="JGYPUnwXIvGKZdL3sUW1-169" value="Efetua envio de consulta" style="swimlane;whiteSpace=wrap;html=1;startSize=20;" vertex="1" parent="1">
          <mxGeometry x="525" y="760" width="170" height="80" as="geometry" />
        </mxCell>
        <mxCell id="JGYPUnwXIvGKZdL3sUW1-170" value="&lt;div style=&quot;text-align: justify;&quot;&gt;&lt;span style=&quot;text-align: center;&quot;&gt;Envia consulta de status de ordem para API B3&lt;/span&gt;&lt;br&gt;&lt;/div&gt;" style="text;html=1;align=center;verticalAlign=middle;whiteSpace=wrap;rounded=0;" vertex="1" parent="JGYPUnwXIvGKZdL3sUW1-169">
          <mxGeometry x="5" y="25" width="160" height="50" as="geometry" />
        </mxCell>
        <mxCell id="JGYPUnwXIvGKZdL3sUW1-172" value="Recebe confirmação da API B3" style="swimlane;whiteSpace=wrap;html=1;startSize=20;" vertex="1" parent="1">
          <mxGeometry x="765" y="760" width="180" height="80" as="geometry" />
        </mxCell>
        <mxCell id="JGYPUnwXIvGKZdL3sUW1-173" value="&lt;div style=&quot;text-align: justify;&quot;&gt;&lt;span style=&quot;background-color: initial;&quot;&gt;API retorna status da ordem&amp;nbsp;&lt;/span&gt;&lt;/div&gt;&lt;div style=&quot;text-align: justify;&quot;&gt;de compra&lt;/div&gt;" style="text;html=1;align=center;verticalAlign=middle;resizable=0;points=[];autosize=1;strokeColor=none;fillColor=none;" vertex="1" parent="JGYPUnwXIvGKZdL3sUW1-172">
          <mxGeometry y="20" width="180" height="40" as="geometry" />
        </mxCell>
        <mxCell id="JGYPUnwXIvGKZdL3sUW1-175" value="" style="edgeStyle=orthogonalEdgeStyle;rounded=0;orthogonalLoop=1;jettySize=auto;html=1;" edge="1" parent="1" source="JGYPUnwXIvGKZdL3sUW1-173" target="JGYPUnwXIvGKZdL3sUW1-86">
          <mxGeometry relative="1" as="geometry" />
        </mxCell>
        <mxCell id="JGYPUnwXIvGKZdL3sUW1-184" value="" style="edgeStyle=orthogonalEdgeStyle;rounded=0;orthogonalLoop=1;jettySize=auto;html=1;entryX=-0.009;entryY=0.256;entryDx=0;entryDy=0;entryPerimeter=0;" edge="1" parent="1" source="JGYPUnwXIvGKZdL3sUW1-176" target="JGYPUnwXIvGKZdL3sUW1-180">
          <mxGeometry relative="1" as="geometry">
            <mxPoint x="751" y="986" as="targetPoint" />
          </mxGeometry>
        </mxCell>
        <mxCell id="JGYPUnwXIvGKZdL3sUW1-176" value="Envia cancelamento" style="swimlane;whiteSpace=wrap;html=1;startSize=30;" vertex="1" parent="1">
          <mxGeometry x="525" y="940" width="170" height="90" as="geometry" />
        </mxCell>
        <mxCell id="JGYPUnwXIvGKZdL3sUW1-177" value="&lt;div style=&quot;text-align: justify;&quot;&gt;&lt;span style=&quot;&quot;&gt;Envia solicitação de cancelamento para API B3&lt;/span&gt;&lt;br&gt;&lt;/div&gt;" style="text;html=1;align=center;verticalAlign=middle;whiteSpace=wrap;rounded=0;" vertex="1" parent="JGYPUnwXIvGKZdL3sUW1-176">
          <mxGeometry x="5" y="35" width="160" height="50" as="geometry" />
        </mxCell>
        <mxCell id="JGYPUnwXIvGKZdL3sUW1-183" value="" style="edgeStyle=orthogonalEdgeStyle;rounded=0;orthogonalLoop=1;jettySize=auto;html=1;entryX=0;entryY=0.5;entryDx=0;entryDy=0;" edge="1" parent="1" source="JGYPUnwXIvGKZdL3sUW1-179" target="JGYPUnwXIvGKZdL3sUW1-181">
          <mxGeometry relative="1" as="geometry" />
        </mxCell>
        <mxCell id="JGYPUnwXIvGKZdL3sUW1-179" value="Recebe estado do cancelamento da API B3" style="swimlane;whiteSpace=wrap;html=1;startSize=30;" vertex="1" parent="1">
          <mxGeometry x="772" y="945" width="180" height="80" as="geometry" />
        </mxCell>
        <mxCell id="JGYPUnwXIvGKZdL3sUW1-180" value="&lt;div style=&quot;text-align: justify;&quot;&gt;&lt;span style=&quot;background-color: initial;&quot;&gt;API retorna estado do&amp;nbsp;&lt;/span&gt;&lt;/div&gt;&lt;div style=&quot;text-align: justify;&quot;&gt;&lt;span style=&quot;background-color: initial;&quot;&gt;cancelamento&amp;nbsp;&lt;/span&gt;&lt;span style=&quot;background-color: initial;&quot;&gt;da ordem&lt;/span&gt;&lt;/div&gt;" style="text;html=1;align=center;verticalAlign=middle;resizable=0;points=[];autosize=1;strokeColor=none;fillColor=none;" vertex="1" parent="JGYPUnwXIvGKZdL3sUW1-179">
          <mxGeometry y="30" width="150" height="40" as="geometry" />
        </mxCell>
        <mxCell id="JGYPUnwXIvGKZdL3sUW1-186" value="" style="edgeStyle=orthogonalEdgeStyle;rounded=0;orthogonalLoop=1;jettySize=auto;html=1;entryX=0;entryY=0.5;entryDx=0;entryDy=0;" edge="1" parent="1" source="JGYPUnwXIvGKZdL3sUW1-181" target="JGYPUnwXIvGKZdL3sUW1-111">
          <mxGeometry relative="1" as="geometry" />
        </mxCell>
        <mxCell id="JGYPUnwXIvGKZdL3sUW1-181" value="Retorna status do cancelamento" style="swimlane;whiteSpace=wrap;html=1;startSize=30;" vertex="1" parent="1">
          <mxGeometry x="1025" y="940" width="170" height="90" as="geometry" />
        </mxCell>
        <mxCell id="JGYPUnwXIvGKZdL3sUW1-182" value="&lt;div style=&quot;text-align: justify;&quot;&gt;&lt;span style=&quot;&quot;&gt;retorna status de cancelamento de ordem de compra&lt;/span&gt;&lt;br&gt;&lt;/div&gt;" style="text;html=1;align=center;verticalAlign=middle;whiteSpace=wrap;rounded=0;" vertex="1" parent="JGYPUnwXIvGKZdL3sUW1-181">
          <mxGeometry x="5" y="35" width="160" height="50" as="geometry" />
        </mxCell>
        <mxCell id="JGYPUnwXIvGKZdL3sUW1-192" value="" style="edgeStyle=orthogonalEdgeStyle;rounded=0;orthogonalLoop=1;jettySize=auto;html=1;entryX=0.001;entryY=0.577;entryDx=0;entryDy=0;entryPerimeter=0;" edge="1" parent="1" source="JGYPUnwXIvGKZdL3sUW1-187" target="JGYPUnwXIvGKZdL3sUW1-191">
          <mxGeometry relative="1" as="geometry" />
        </mxCell>
        <mxCell id="JGYPUnwXIvGKZdL3sUW1-187" value="Efetua requisição de sincronizar carteira" style="swimlane;whiteSpace=wrap;html=1;startSize=30;" vertex="1" parent="1">
          <mxGeometry x="545" y="1332.5" width="170" height="85" as="geometry" />
        </mxCell>
        <mxCell id="JGYPUnwXIvGKZdL3sUW1-188" value="&lt;div style=&quot;text-align: left;&quot;&gt;&lt;span style=&quot;&quot;&gt;Envia solicitação de sincronizar carteira para API B3&lt;/span&gt;&lt;/div&gt;" style="text;html=1;align=center;verticalAlign=middle;whiteSpace=wrap;rounded=0;" vertex="1" parent="JGYPUnwXIvGKZdL3sUW1-187">
          <mxGeometry x="5" y="30" width="160" height="50" as="geometry" />
        </mxCell>
        <mxCell id="JGYPUnwXIvGKZdL3sUW1-190" value="Recebe confirmação da API B3" style="swimlane;whiteSpace=wrap;html=1;startSize=20;" vertex="1" parent="1">
          <mxGeometry x="790" y="1332.5" width="180" height="80" as="geometry" />
        </mxCell>
        <mxCell id="JGYPUnwXIvGKZdL3sUW1-191" value="&lt;div style=&quot;text-align: justify;&quot;&gt;&lt;span style=&quot;background-color: initial;&quot;&gt;API retorna status da carteira&lt;/span&gt;&lt;/div&gt;&lt;div style=&quot;text-align: justify;&quot;&gt;&lt;span style=&quot;background-color: initial;&quot;&gt;sincronizada&lt;/span&gt;&lt;/div&gt;" style="text;html=1;align=center;verticalAlign=middle;resizable=0;points=[];autosize=1;strokeColor=none;fillColor=none;" vertex="1" parent="JGYPUnwXIvGKZdL3sUW1-190">
          <mxGeometry y="20" width="180" height="40" as="geometry" />
        </mxCell>
        <mxCell id="JGYPUnwXIvGKZdL3sUW1-193" value="" style="edgeStyle=orthogonalEdgeStyle;rounded=0;orthogonalLoop=1;jettySize=auto;html=1;" edge="1" parent="1" source="JGYPUnwXIvGKZdL3sUW1-191" target="JGYPUnwXIvGKZdL3sUW1-140">
          <mxGeometry relative="1" as="geometry" />
        </mxCell>
        <mxCell id="JGYPUnwXIvGKZdL3sUW1-201" value="" style="edgeStyle=orthogonalEdgeStyle;rounded=0;orthogonalLoop=1;jettySize=auto;html=1;" edge="1" parent="1" source="JGYPUnwXIvGKZdL3sUW1-196" target="JGYPUnwXIvGKZdL3sUW1-200">
          <mxGeometry relative="1" as="geometry" />
        </mxCell>
        <mxCell id="JGYPUnwXIvGKZdL3sUW1-196" value="Efetua envio de consulta" style="swimlane;whiteSpace=wrap;html=1;startSize=20;" vertex="1" parent="1">
          <mxGeometry x="525" y="1130" width="170" height="80" as="geometry" />
        </mxCell>
        <mxCell id="JGYPUnwXIvGKZdL3sUW1-197" value="&lt;div style=&quot;text-align: justify;&quot;&gt;&lt;span style=&quot;text-align: center;&quot;&gt;Envia consulta de status de ordem de compra para API B3&lt;/span&gt;&lt;br&gt;&lt;/div&gt;" style="text;html=1;align=center;verticalAlign=middle;whiteSpace=wrap;rounded=0;" vertex="1" parent="JGYPUnwXIvGKZdL3sUW1-196">
          <mxGeometry x="5" y="25" width="160" height="50" as="geometry" />
        </mxCell>
        <mxCell id="JGYPUnwXIvGKZdL3sUW1-199" value="Recebe confirmação da API B3" style="swimlane;whiteSpace=wrap;html=1;startSize=20;" vertex="1" parent="1">
          <mxGeometry x="772" y="1130" width="180" height="80" as="geometry" />
        </mxCell>
        <mxCell id="JGYPUnwXIvGKZdL3sUW1-200" value="&lt;div style=&quot;text-align: justify;&quot;&gt;&lt;span style=&quot;background-color: initial;&quot;&gt;API retorna status da ordem&amp;nbsp;&lt;/span&gt;&lt;/div&gt;&lt;div style=&quot;text-align: justify;&quot;&gt;de venda&lt;/div&gt;" style="text;html=1;align=center;verticalAlign=middle;resizable=0;points=[];autosize=1;strokeColor=none;fillColor=none;" vertex="1" parent="JGYPUnwXIvGKZdL3sUW1-199">
          <mxGeometry y="20" width="180" height="40" as="geometry" />
        </mxCell>
      </root>
    </mxGraphModel>
  </diagram>
</mxfile>
